<?xml version="1.0" encoding="UTF-8"?>
<svg xmlns="http://www.w3.org/2000/svg" xmlns:xlink="http://www.w3.org/1999/xlink" width="35pt" height="25pt" viewBox="0 0 35 25" version="1.1">
<defs>
<filter id="alpha" filterUnits="objectBoundingBox" x="0%" y="0%" width="100%" height="100%">
  <feColorMatrix type="matrix" in="SourceGraphic" values="0 0 0 0 1 0 0 0 0 1 0 0 0 0 1 0 0 0 1 0"/>
</filter>
<clipPath id="clip1">
  <rect x="0" y="0" width="35" height="25"/>
</clipPath>
<g id="surface13" clip-path="url(#clip1)">
<path style=" stroke:none;fill-rule:nonzero;fill:rgb(0%,0%,0%);fill-opacity:1;" d="M 4.253906 1.835938 L 27.464844 0.265625 L 29 23 L 5.789062 24.566406 Z M 4.253906 1.835938 "/>
</g>
<mask id="mask0">
  <g filter="url(#alpha)">
<use xlink:href="#surface13"/>
  </g>
</mask>
<clipPath id="clip3">
  <rect x="0" y="0" width="35" height="25"/>
</clipPath>
<g id="surface9" clip-path="url(#clip3)">
<path style=" stroke:none;fill-rule:nonzero;fill:rgb(0%,0%,0%);fill-opacity:1;" d="M 15.652344 10.140625 L 18.554688 9.945312 L 18.753906 12.910156 L 15.855469 13.105469 Z M 15.652344 10.140625 "/>
</g>
<mask id="mask1">
  <g filter="url(#alpha)">
<use xlink:href="#surface9"/>
  </g>
</mask>
<clipPath id="clip4">
  <rect x="0" y="0" width="35" height="25"/>
</clipPath>
<g id="surface8" clip-path="url(#clip4)">
<path style=" stroke:none;fill-rule:nonzero;fill:rgb(100%,100%,100%);fill-opacity:1;" d="M 17.261719 12.378906 L 18.195312 12.871094 L 17.886719 11.847656 L 18.632812 11.089844 L 17.582031 11.070312 L 17.109375 10.117188 L 16.769531 11.125 L 15.730469 11.289062 L 16.570312 11.933594 L 16.402344 12.992188 Z M 17.261719 12.378906 "/>
</g>
<clipPath id="clip2">
  <rect x="0" y="0" width="35" height="25"/>
</clipPath>
<g id="surface12" clip-path="url(#clip2)">
<path style=" stroke:none;fill-rule:nonzero;fill:rgb(0%,0%,0%);fill-opacity:1;" d="M 4.253906 1.835938 L 27.464844 0.265625 L 29 23 L 5.789062 24.566406 Z M 4.253906 1.835938 "/>
<path style=" stroke:none;fill-rule:nonzero;fill:rgb(100%,100%,100%);fill-opacity:1;" d="M 6.953125 13.070312 C 7.054688 14.558594 7.511719 16 8.285156 17.28125 C 9.0625 18.5625 10.136719 19.644531 11.417969 20.441406 C 12.703125 21.238281 14.160156 21.726562 15.675781 21.871094 C 17.191406 22.011719 18.71875 21.800781 20.136719 21.257812 C 18.132812 20.785156 16.335938 19.699219 15.007812 18.15625 C 13.679688 16.613281 12.890625 14.695312 12.753906 12.679688 C 12.621094 10.664062 13.144531 8.65625 14.253906 6.949219 C 15.359375 5.238281 16.996094 3.921875 18.917969 3.183594 C 17.4375 2.835938 15.894531 2.835938 14.414062 3.179688 C 12.933594 3.523438 11.554688 4.203125 10.386719 5.167969 C 9.222656 6.128906 8.304688 7.347656 7.710938 8.71875 C 7.113281 10.09375 6.855469 11.582031 6.953125 13.070312 Z M 6.953125 13.070312 "/>
<use xlink:href="#surface8" mask="url(#mask1)"/>
</g>
</defs>
<g id="surface1">
<rect x="0" y="0" width="35" height="25" style="fill:rgb(0%,0%,0%);fill-opacity:1;stroke:none;"/>
<use xlink:href="#surface12" mask="url(#mask0)"/>
<path style=" stroke:none;fill-rule:nonzero;fill:rgb(100%,100%,100%);fill-opacity:1;" d="M 22 8.730469 L 23.855469 9.851562 L 23.363281 7.742188 L 25 6.320312 L 22.84375 6.140625 L 22 4.148438 L 21.15625 6.140625 L 19 6.320312 L 20.636719 7.742188 L 20.144531 9.851562 Z M 22 8.730469 "/>
</g>
</svg>
